<svg id="Ebene_1" data-name="Ebene 1" xmlns="http://www.w3.org/2000/svg" viewBox="0 0 110 120"><defs><style>.cls-1{fill:#243b53;}.cls-2{fill:#fff;}.cls-3{fill:#00b1e2;}</style></defs><title>DataCite-Logos</title><polygon class="cls-1" points="104.8 88.75 104.8 31.25 55 2.5 5.2 31.25 5.2 88.75 55 117.5 104.8 88.75"/><path class="cls-2" d="M55,114,8.27,87V33l.2-.12L55,6l46.73,27V87l-.2.12ZM9.09,86.51,55,113l45.91-26.51v-53L55,7,9.09,33.49Z"/><path class="cls-2" d="M33.65,73.28a2.22,2.22,0,0,1-1-.77,2,2,0,0,1-.35-1.17v-.27a.13.13,0,0,1,0-.1.16.16,0,0,1,.09,0h1a.17.17,0,0,1,.1,0,.18.18,0,0,1,0,.1v.21a1,1,0,0,0,.45.84,2,2,0,0,0,1.23.34,1.57,1.57,0,0,0,1-.29.91.91,0,0,0,.34-.74.74.74,0,0,0-.19-.52,1.49,1.49,0,0,0-.53-.39c-.23-.12-.58-.27-1-.45a9.85,9.85,0,0,1-1.27-.54,2.26,2.26,0,0,1-.81-.69,1.74,1.74,0,0,1-.33-1.08,1.84,1.84,0,0,1,.71-1.53A2.91,2.91,0,0,1,35,65.66a3.57,3.57,0,0,1,1.47.29,2.3,2.3,0,0,1,1,.8,2,2,0,0,1,.36,1.18v.19a.18.18,0,0,1,0,.1.17.17,0,0,1-.1,0h-1a.12.12,0,0,1-.09,0,.13.13,0,0,1,0-.1V68a1.11,1.11,0,0,0-.43-.88A1.74,1.74,0,0,0,35,66.77,1.5,1.5,0,0,0,34,67a.84.84,0,0,0-.34.72.8.8,0,0,0,.18.54,1.54,1.54,0,0,0,.53.38,11.24,11.24,0,0,0,1.09.43,13.11,13.11,0,0,1,1.25.54,2.48,2.48,0,0,1,.8.68,1.69,1.69,0,0,1,.34,1.09A1.91,1.91,0,0,1,37.15,73a3.13,3.13,0,0,1-2,.58A3.62,3.62,0,0,1,33.65,73.28Z"/><path class="cls-2" d="M45,66.81a.13.13,0,0,1-.1,0H41.11s0,0,0,.06V69s0,.06,0,.06h2.53a.12.12,0,0,1,.09,0,.13.13,0,0,1,0,.1V70a.14.14,0,0,1-.13.13H41.11s0,0,0,.06v2.12s0,.06,0,.06h3.76a.13.13,0,0,1,.1,0,.13.13,0,0,1,0,.09v.84a.13.13,0,0,1,0,.09.13.13,0,0,1-.1,0h-5a.14.14,0,0,1-.13-.13V65.88a.12.12,0,0,1,0-.09.1.1,0,0,1,.09,0h5a.13.13,0,0,1,.1,0,.18.18,0,0,1,0,.09v.84A.13.13,0,0,1,45,66.81Z"/><path class="cls-2" d="M51.1,73.37,49.64,70.2s0,0-.07,0H48.25a.05.05,0,0,0-.06.06v3.13a.12.12,0,0,1,0,.09.13.13,0,0,1-.1,0h-1a.13.13,0,0,1-.1,0,.12.12,0,0,1,0-.09V65.88a.16.16,0,0,1,0-.09.13.13,0,0,1,.1,0h3a2.41,2.41,0,0,1,1.19.28,2,2,0,0,1,.81.8A2.36,2.36,0,0,1,52.36,68,2.15,2.15,0,0,1,52,69.3a2,2,0,0,1-1.08.74.05.05,0,0,0,0,0v0l1.56,3.21,0,.06q0,.09-.12.09H51.25A.15.15,0,0,1,51.1,73.37Zm-2.91-6.46V69.1a.05.05,0,0,0,.06.06H49.9a1.19,1.19,0,0,0,.86-.32,1.06,1.06,0,0,0,.32-.83,1.13,1.13,0,0,0-.32-.84,1.19,1.19,0,0,0-.86-.32H48.25A.05.05,0,0,0,48.19,66.91Z"/><path class="cls-2" d="M56.14,73.36,53.82,65.9v0c0-.07,0-.11.12-.11H55a.16.16,0,0,1,.16.11l1.65,5.76,0,0s0,0,0,0l1.64-5.76a.15.15,0,0,1,.16-.11h1.07a.13.13,0,0,1,.09,0,.11.11,0,0,1,0,.11l-2.35,7.46a.14.14,0,0,1-.15.11h-1.1A.13.13,0,0,1,56.14,73.36Z"/><path class="cls-2" d="M61.66,73.43a.1.1,0,0,1,0-.09V65.88a.12.12,0,0,1,0-.09.1.1,0,0,1,.09,0h1a.12.12,0,0,1,.09,0,.18.18,0,0,1,0,.09v7.46a.13.13,0,0,1,0,.09.12.12,0,0,1-.09,0h-1A.1.1,0,0,1,61.66,73.43Z"/><path class="cls-2" d="M66.24,73.23a2.35,2.35,0,0,1-1-.9A2.64,2.64,0,0,1,64.93,71V68.24a2.6,2.6,0,0,1,.34-1.35,2.37,2.37,0,0,1,1-.91,3.2,3.2,0,0,1,1.46-.32,3.31,3.31,0,0,1,1.44.31,2.35,2.35,0,0,1,1,.87,2.45,2.45,0,0,1,.34,1.3.13.13,0,0,1,0,.1.13.13,0,0,1-.09,0l-1,0c-.09,0-.14,0-.14-.12a1.42,1.42,0,0,0-.4-1,1.68,1.68,0,0,0-2.15,0,1.39,1.39,0,0,0-.41,1V71a1.35,1.35,0,0,0,.41,1,1.64,1.64,0,0,0,2.15,0,1.36,1.36,0,0,0,.4-1c0-.08,0-.12.14-.12l1,0a.12.12,0,0,1,.09,0,.09.09,0,0,1,0,.08,2.44,2.44,0,0,1-.34,1.31,2.24,2.24,0,0,1-1,.88,3.18,3.18,0,0,1-1.44.31A3.08,3.08,0,0,1,66.24,73.23Z"/><path class="cls-2" d="M77.62,66.81a.13.13,0,0,1-.1,0H73.76s-.05,0-.05.06V69s0,.06.05.06h2.53a.12.12,0,0,1,.09,0,.13.13,0,0,1,0,.1V70a.14.14,0,0,1-.13.13H73.76s-.05,0-.05.06v2.12s0,.06.05.06h3.76a.13.13,0,0,1,.1,0,.13.13,0,0,1,0,.09v.84a.13.13,0,0,1,0,.09.13.13,0,0,1-.1,0h-5a.14.14,0,0,1-.13-.13V65.88a.12.12,0,0,1,0-.09.1.1,0,0,1,.09,0h5a.13.13,0,0,1,.1,0,.18.18,0,0,1,0,.09v.84A.13.13,0,0,1,77.62,66.81Z"/><path class="cls-2" d="M33.55,77.47a2,2,0,0,1,.83.81,2.48,2.48,0,0,1,.29,1.2,2.38,2.38,0,0,1-.3,1.2,2.09,2.09,0,0,1-.84.8,2.86,2.86,0,0,1-1.27.28H30.5s-.06,0-.06,0v3a.14.14,0,0,1-.13.13h-1a.13.13,0,0,1-.1,0,.13.13,0,0,1,0-.09V77.31a.13.13,0,0,1,0-.09.13.13,0,0,1,.1,0h3A2.42,2.42,0,0,1,33.55,77.47Zm-.5,2.92a1.18,1.18,0,0,0,.34-.87,1.17,1.17,0,0,0-1.25-1.24H30.5a.05.05,0,0,0-.06.06v2.32a.05.05,0,0,0,.06.06h1.64A1.26,1.26,0,0,0,33.05,80.39Z"/><path class="cls-2" d="M40.41,84.81,39,81.64s0,0-.07,0H37.57a.05.05,0,0,0-.06.06v3.13a.14.14,0,0,1-.13.13h-1a.13.13,0,0,1-.1,0,.13.13,0,0,1,0-.09V77.32a.13.13,0,0,1,0-.09.13.13,0,0,1,.1,0h3a2.43,2.43,0,0,1,1.19.28,2.05,2.05,0,0,1,.81.79,2.42,2.42,0,0,1,.28,1.18,2.15,2.15,0,0,1-.39,1.3,2,2,0,0,1-1.09.74l0,0a0,0,0,0,0,0,0l1.56,3.21,0,.06q0,.09-.12.09H40.57A.15.15,0,0,1,40.41,84.81Zm-2.9-6.46v2.19a.05.05,0,0,0,.06.06h1.65a1.19,1.19,0,0,0,.86-.32,1.11,1.11,0,0,0,.32-.83,1.17,1.17,0,0,0-.32-.84,1.19,1.19,0,0,0-.86-.32H37.57A.05.05,0,0,0,37.51,78.35Z"/><path class="cls-2" d="M44.75,84.68a2.33,2.33,0,0,1-1-1,2.87,2.87,0,0,1-.35-1.42V79.79a2.68,2.68,0,0,1,.36-1.4,2.36,2.36,0,0,1,1-1,3.35,3.35,0,0,1,2.94,0,2.45,2.45,0,0,1,1,1,2.77,2.77,0,0,1,.35,1.4v2.52a2.87,2.87,0,0,1-.35,1.42,2.45,2.45,0,0,1-1,1,3.35,3.35,0,0,1-2.94,0Zm2.58-1.19a1.57,1.57,0,0,0,.42-1.14V79.78a1.54,1.54,0,0,0-.42-1.14,1.62,1.62,0,0,0-2.22,0,1.54,1.54,0,0,0-.42,1.14v2.57a1.57,1.57,0,0,0,.42,1.14,1.65,1.65,0,0,0,2.22,0Z"/><path class="cls-2" d="M52.58,84.8l-2.32-7.46v0c0-.07,0-.11.12-.11h1.09a.15.15,0,0,1,.16.11l1.65,5.76s0,0,0,0l0,0L55,77.3a.16.16,0,0,1,.16-.11h1.07a.15.15,0,0,1,.1,0,.14.14,0,0,1,0,.11L54,84.8a.14.14,0,0,1-.14.11H52.72A.14.14,0,0,1,52.58,84.8Z"/><path class="cls-2" d="M57.93,84.87a.12.12,0,0,1,0-.09V77.32a.12.12,0,0,1,0-.09.13.13,0,0,1,.1,0h1a.13.13,0,0,1,.1,0,.12.12,0,0,1,0,.09v7.46a.12.12,0,0,1,0,.09.13.13,0,0,1-.1,0H58A.13.13,0,0,1,57.93,84.87Z"/><path class="cls-2" d="M61.26,84.87a.12.12,0,0,1,0-.09V77.32a.12.12,0,0,1,0-.09.13.13,0,0,1,.1,0h2.69a3.18,3.18,0,0,1,1.38.28,2.08,2.08,0,0,1,.92.78,2.2,2.2,0,0,1,.32,1.2v3.2a2.07,2.07,0,0,1-1.24,2,3.33,3.33,0,0,1-1.38.27H61.36A.13.13,0,0,1,61.26,84.87Zm1.3-1.06H64.1a1.27,1.27,0,0,0,.94-.37,1.41,1.41,0,0,0,.35-1V79.66a1.37,1.37,0,0,0-.35-1,1.26,1.26,0,0,0-1-.37H62.56s-.05,0-.05.06v5.4S62.52,83.81,62.56,83.81Z"/><path class="cls-2" d="M73.67,78.25a.1.1,0,0,1-.09,0H69.82a.05.05,0,0,0-.06.06v2.06a.05.05,0,0,0,.06.06h2.52a.17.17,0,0,1,.1,0,.18.18,0,0,1,0,.1v.84a.18.18,0,0,1,0,.09.13.13,0,0,1-.1,0H69.82s-.06,0-.06.05v2.13a.05.05,0,0,0,.06.06h3.76a.14.14,0,0,1,.13.13v.84a.14.14,0,0,1-.13.13h-5a.13.13,0,0,1-.1,0,.13.13,0,0,1,0-.09V77.32a.13.13,0,0,1,0-.09.13.13,0,0,1,.1,0h5a.14.14,0,0,1,.13.13v.84A.1.1,0,0,1,73.67,78.25Z"/><path class="cls-2" d="M79.47,84.81,78,81.64a.06.06,0,0,0-.06,0H76.62s-.05,0-.05.06v3.13a.13.13,0,0,1,0,.09.13.13,0,0,1-.1,0h-1a.14.14,0,0,1-.13-.13V77.32a.14.14,0,0,1,.13-.13h3a2.41,2.41,0,0,1,1.19.28,2,2,0,0,1,.81.79,2.43,2.43,0,0,1,.29,1.18,2.15,2.15,0,0,1-.39,1.3,2.11,2.11,0,0,1-1.09.74s0,0,0,0a0,0,0,0,0,0,0l1.55,3.21a.1.1,0,0,1,0,.06q0,.09-.12.09H79.62A.15.15,0,0,1,79.47,84.81Zm-2.9-6.46v2.19s0,.06.05.06h1.66a1.18,1.18,0,0,0,.85-.32,1.08,1.08,0,0,0,.33-.83,1.14,1.14,0,0,0-.33-.84,1.18,1.18,0,0,0-.85-.32H76.62S76.57,78.31,76.57,78.35Z"/><path class="cls-2" d="M29.37,54.05a.17.17,0,0,1-.05-.12V44a.18.18,0,0,1,.05-.12.21.21,0,0,1,.13-.05h3.65a4.52,4.52,0,0,1,1.93.39,3,3,0,0,1,1.28,1.09A2.9,2.9,0,0,1,36.81,47v4a3,3,0,0,1-.45,1.62,3,3,0,0,1-1.28,1.09,4.52,4.52,0,0,1-1.93.39H29.5A.18.18,0,0,1,29.37,54.05Zm2.09-1.71h1.77a1.44,1.44,0,0,0,1.09-.46,1.8,1.8,0,0,0,.43-1.21V47.31a1.72,1.72,0,0,0-.42-1.22,1.45,1.45,0,0,0-1.12-.45H31.46c-.05,0-.08,0-.08.07v6.55A.07.07,0,0,0,31.46,52.34Z"/><path class="cls-2" d="M42.88,46.8a2.86,2.86,0,0,1,1.16.9A2.08,2.08,0,0,1,44.46,49v5a.17.17,0,0,1-.05.12.18.18,0,0,1-.13.06H42.57a.21.21,0,0,1-.18-.18v-.48s0-.05,0-.06,0,0-.06,0a2.35,2.35,0,0,1-2,.8,2.88,2.88,0,0,1-1.84-.55,2,2,0,0,1-.7-1.64,2.1,2.1,0,0,1,.79-1.75,3.59,3.59,0,0,1,2.25-.62h1.49s.07,0,.07-.07v-.33a1,1,0,0,0-.29-.75,1.25,1.25,0,0,0-.88-.27,1.67,1.67,0,0,0-.75.16.77.77,0,0,0-.39.46.16.16,0,0,1-.19.14l-1.77-.23c-.11,0-.17-.07-.16-.13a2.06,2.06,0,0,1,.49-1.12,3,3,0,0,1,1.14-.77,4.28,4.28,0,0,1,1.59-.28A4.19,4.19,0,0,1,42.88,46.8ZM42,52.35a1,1,0,0,0,.43-.86V51c0-.05,0-.07-.07-.07h-1a1.8,1.8,0,0,0-1,.25.79.79,0,0,0-.38.7.78.78,0,0,0,.28.62,1.18,1.18,0,0,0,.75.23A1.75,1.75,0,0,0,42,52.35Z"/><path class="cls-2" d="M49.71,48.19a.17.17,0,0,1-.12.05h-1.4a.07.07,0,0,0-.08.07v3.1a1.09,1.09,0,0,0,.2.72.77.77,0,0,0,.64.24h.48a.17.17,0,0,1,.17.17v1.39a.17.17,0,0,1-.17.19l-.88,0a3.26,3.26,0,0,1-1.81-.4,1.74,1.74,0,0,1-.62-1.52V48.31a.06.06,0,0,0-.07-.07h-.83a.21.21,0,0,1-.13-.05.18.18,0,0,1-.05-.12V46.76a.18.18,0,0,1,.05-.12.21.21,0,0,1,.13,0h.83a.06.06,0,0,0,.07-.07V44.78a.18.18,0,0,1,.06-.13.17.17,0,0,1,.12,0h1.64a.17.17,0,0,1,.17.18v1.74a.07.07,0,0,0,.08.07h1.4a.17.17,0,0,1,.12,0,.16.16,0,0,1,.06.12v1.31A.16.16,0,0,1,49.71,48.19Z"/><path class="cls-2" d="M55.7,46.8a2.73,2.73,0,0,1,1.16.9A2.08,2.08,0,0,1,57.28,49v5a.17.17,0,0,1-.05.12.16.16,0,0,1-.12.06H55.39a.16.16,0,0,1-.12-.06.17.17,0,0,1-.05-.12v-.48a.06.06,0,0,0,0-.06s0,0-.06,0a2.34,2.34,0,0,1-2,.8,2.91,2.91,0,0,1-1.85-.55,2,2,0,0,1-.7-1.64,2.13,2.13,0,0,1,.79-1.75,3.61,3.61,0,0,1,2.25-.62h1.5a.06.06,0,0,0,.07-.07v-.33a1,1,0,0,0-.29-.75,1.27,1.27,0,0,0-.88-.27,1.67,1.67,0,0,0-.75.16.77.77,0,0,0-.39.46.17.17,0,0,1-.19.14L51,48.77c-.12,0-.17-.07-.16-.13a2,2,0,0,1,.49-1.12,3,3,0,0,1,1.14-.77A4.21,4.21,0,0,1,54,46.47,4.14,4.14,0,0,1,55.7,46.8Zm-.92,5.55a1,1,0,0,0,.44-.86V51a.06.06,0,0,0-.07-.07H54.09a1.8,1.8,0,0,0-1,.25.78.78,0,0,0-.37.7.75.75,0,0,0,.28.62,1.13,1.13,0,0,0,.74.23A1.73,1.73,0,0,0,54.78,52.35Z"/><path class="cls-3" d="M60.66,53.83a2.83,2.83,0,0,1-1.21-1.14A3.38,3.38,0,0,1,59,51V47a3.33,3.33,0,0,1,.43-1.68,3,3,0,0,1,1.21-1.14,4,4,0,0,1,1.8-.4,3.85,3.85,0,0,1,1.8.4,2.86,2.86,0,0,1,1.2,1.11,3.12,3.12,0,0,1,.43,1.65.16.16,0,0,1,0,.12.13.13,0,0,1-.1,0l-.75,0a.12.12,0,0,1-.14-.14v0a2.17,2.17,0,0,0-.66-1.66,2.45,2.45,0,0,0-1.74-.62,2.42,2.42,0,0,0-1.74.63,2.18,2.18,0,0,0-.66,1.65V51a2.18,2.18,0,0,0,.66,1.66,2.72,2.72,0,0,0,3.48,0A2.15,2.15,0,0,0,64.86,51v0a.12.12,0,0,1,.14-.14l.75.05c.1,0,.14,0,.14.13a3.17,3.17,0,0,1-.43,1.67,2.82,2.82,0,0,1-1.2,1.12,4.2,4.2,0,0,1-3.6,0Z"/><path class="cls-3" d="M67.4,45.13a.78.78,0,0,1-.23-.59A.77.77,0,0,1,67.4,44a.86.86,0,0,1,1.17,0,.77.77,0,0,1,.23.59.78.78,0,0,1-.23.59.86.86,0,0,1-1.17,0Zm0,8.81v-7.1a.13.13,0,0,1,.15-.15h.74a.13.13,0,0,1,.15.15v7.1a.13.13,0,0,1-.15.15h-.74A.13.13,0,0,1,67.43,53.94Z"/><path class="cls-3" d="M73.75,47.57H72.09s0,0,0,.06v4.31a1.29,1.29,0,0,0,.31,1,1.45,1.45,0,0,0,1,.28h.36a.13.13,0,0,1,.15.15V54a.13.13,0,0,1-.15.15h-.54a2.7,2.7,0,0,1-1.59-.39A1.73,1.73,0,0,1,71,52.26V47.63a.05.05,0,0,0-.06-.06h-.89a.13.13,0,0,1-.15-.15v-.57c0-.1,0-.14.15-.14H71a.05.05,0,0,0,.06-.06V45c0-.1,0-.15.14-.15h.72A.13.13,0,0,1,72,45v1.7s0,.06,0,.06h1.66a.12.12,0,0,1,.14.14v.57C73.89,47.52,73.84,47.57,73.75,47.57Z"/><path class="cls-3" d="M80.68,50.19v.46a.13.13,0,0,1-.15.15H75.81a.05.05,0,0,0-.06.06,6.4,6.4,0,0,0,.09,1,1.74,1.74,0,0,0,.69,1,2.24,2.24,0,0,0,1.34.38A2.12,2.12,0,0,0,79,53a1.92,1.92,0,0,0,.73-.79q.09-.14.21-.06l.57.34a.14.14,0,0,1,.06.2,2.59,2.59,0,0,1-1.1,1.1,3.43,3.43,0,0,1-1.68.41,3.11,3.11,0,0,1-1.74-.5,2.62,2.62,0,0,1-1-1.35,5.85,5.85,0,0,1-.26-2c0-.41,0-.75,0-1a2.85,2.85,0,0,1,.11-.69,2.7,2.7,0,0,1,1-1.52,2.93,2.93,0,0,1,1.82-.57,2.88,2.88,0,0,1,2,.67,3.12,3.12,0,0,1,.89,1.9A7.42,7.42,0,0,1,80.68,50.19Zm-4.19-2.32a1.67,1.67,0,0,0-.62,1,4.6,4.6,0,0,0-.12,1,.05.05,0,0,0,.06.06H79.6s.05,0,.05-.06a5.45,5.45,0,0,0-.08-.93,1.91,1.91,0,0,0-.65-1,1.93,1.93,0,0,0-1.24-.38A1.86,1.86,0,0,0,76.49,47.87Z"/><path class="cls-2" d="M45.66,34.7l.43.07c7,1.4,17.54-.45,18.89-3.87,1-2.76-4.86-4.71-11.77-4.47a2.75,2.75,0,0,0-.4,0c3.68.37,7,1.83,5.67,4.11-1.45,2.5-7.59,4.16-12.82,4.14"/><path class="cls-3" d="M61.09,35.05c-1.22,7.41-7.62,3-9.14-2.17-2.19-5.36-.24-12.24,5.25-8.21-4.54-2.08-5,3.95-3.08,8.23,1.62,3.58,5.12,5.89,6.81,2.2.07,0,.14,0,.16-.05"/></svg>
