<?xml version="1.0" encoding="UTF-8"?><svg id="Layer_1" xmlns="http://www.w3.org/2000/svg" viewBox="0 0 563 285"><path d="M319.35094,100.38713h6.9137V61.78566l29.23922,38.60147h5.90561V49.68664h-6.9138v38.74553l-29.23922-38.74553h-5.90551v50.70049h0Zm0,134.24161h6.76974v-37.0171l11.5228,21.46128h5.32928l11.66685-21.74939v37.30521h6.76984v-50.70044h-6.48173l-14.25947,26.79056-14.83569-26.79056h-6.48163v50.70044h0Zm49.54824-152.24604c0,10.80262,7.92189,18.86862,18.00443,18.86862,5.90541,0,10.80262-2.73667,13.53929-7.48987v6.62569h6.76964v-36.00886h-6.76964v6.48153c-2.73667-4.6091-7.63388-7.34577-13.53929-7.34577-10.08254,0-18.00443,8.06595-18.00443,18.86867h0Zm1.40671,138.13053c0,9.07424,5.76135,14.9797,14.83559,14.9797s14.97965-5.90546,14.97965-14.9797v-21.89335h-6.76964v22.32547c0,5.32933-3.16874,8.78618-8.21001,8.78618-4.89721,0-8.06595-3.45685-8.06595-8.78618v-22.32547h-6.76964v21.89335h0Zm5.50699-138.13053c0-7.34577,5.32928-12.67515,12.38704-12.67515,6.9137,0,12.24298,5.32938,12.24298,12.67515,0,7.20176-5.32928,12.6751-12.24298,12.6751-7.05776,0-12.38704-5.47334-12.38704-12.6751h0Zm30.64583,149.50937c3.45685,2.59261,8.21001,3.60086,11.81091,3.60086,8.78623,0,13.97145-4.03297,13.97145-10.80267,0-5.18527-2.59261-8.93014-9.65037-10.65861l-4.6091-1.15225c-3.60091-.86424-4.89721-2.44861-4.89721-4.60915,0-2.73667,2.73667-4.75316,7.05776-4.75316,3.88892,0,7.48982,1.1523,10.65856,3.31279v-6.48158c-2.88072-1.58442-6.9137-2.59266-11.09073-2.59266-6.9137,0-13.25127,4.17703-13.25127,10.80267,0,4.60915,2.59271,8.49807,9.79442,10.22649l4.17703,1.00829c3.74496,.86424,5.32928,2.44856,5.32928,5.04122,0,3.16879-2.73667,4.89721-7.34577,4.89721-3.88892,0-8.49812-1.29631-11.95497-4.32104v6.48158h0Zm6.22727-161.75245h6.33747v16.70812c0,9.50636,5.32938,14.40357,12.96326,14.40357,2.16054,0,4.6091-.57612,7.34577-1.87248v-5.61739c-2.16054,1.15235-4.03297,1.72847-6.33747,1.72847-4.17713,0-7.20181-2.88072-7.20181-8.78618v-16.56412h12.67505v-5.76135h-12.67505v-10.65866h-6.76974v10.65866h-6.33747v5.76135h0Zm32.40795,16.132c0,9.07424,5.76135,14.9797,14.83559,14.9797s14.97975-5.90546,14.97975-14.9797v-21.89335h-6.76974v22.32547c0,5.32933-3.16874,8.78618-8.21001,8.78618-4.89721,0-8.06595-3.45685-8.06595-8.78618v-22.32547h-6.76964v21.89335h0Zm62.36735-3.88892c0,10.80262,7.92189,18.86862,18.00443,18.86862,5.90551,0,10.80262-2.73667,13.53929-7.48987v6.62569h6.76964v-36.00886h-6.76964v6.48153c-2.73667-4.6091-7.63378-7.34577-13.53929-7.34577-10.08254,0-18.00443,8.06595-18.00443,18.86867h0Zm6.9137,0c0-7.34577,5.32928-12.67515,12.38704-12.67515,6.9137,0,12.24298,5.32938,12.24298,12.67515,0,7.20176-5.32928,12.6751-12.24298,12.6751-7.05776,0-12.38704-5.47334-12.38704-12.6751h0Zm40.61806,18.00443h6.76954V49.68664h-6.76954v50.70049h0Zm-71.9922,0v-36.00886h6.76964v6.9137c1.58442-4.46514,5.76145-7.77794,10.80262-7.77794,1.58442,0,3.31279,.14406,4.89731,.86424v6.33757c-1.87253-.72018-3.60101-.86424-5.32938-.86424-4.32099,0-10.37055,3.88892-10.37055,11.95492v18.5806h-6.76964Zm32.63147,134.24161v-36.00886h6.94626v4.60915c1.33023-3.31284,4.72945-5.47339,8.71983-5.47339,4.13819,0,7.83304,2.01649,9.60661,6.04951,2.21681-4.17703,5.91166-6.04951,9.90224-6.04951,7.09397,0,11.67551,5.04127,11.67551,13.10722v23.76588h-6.94626v-24.19795c0-5.7614-3.25131-6.9137-5.76395-6.9137-4.28601,0-7.24189,3.16879-7.24189,7.20176v23.90988h-6.94626v-23.76588c0-5.90546-3.1037-7.34577-5.76395-7.34577-4.28601,0-7.24189,3.16879-7.24189,7.34577v23.76588h-6.94626Zm-38.14725-14.11551v-21.89335h6.76964v22.32547c0,5.32933,3.16884,8.78618,8.21001,8.78618,4.89721,0,8.21001-3.45685,8.21001-8.78618v-22.32547h6.76984v21.89335c0,9.07424-5.90561,14.9797-14.97985,14.9797s-14.97965-5.90546-14.97965-14.9797h0Zm-6.75728-4.60911c0-10.37058-5.32938-18.14851-16.13198-18.14851-10.37058,0-17.57239,8.06605-17.57239,18.86872,0,11.23475,7.6339,18.8686,18.58054,18.8686,6.3377,0,11.23481-2.16056,14.11551-4.89723v-6.76961c-3.02479,3.60091-7.77782,5.90544-12.96316,5.90544-7.77788,0-12.38688-4.89723-13.10719-11.52281h26.93459c.14409-1.29632,.14409-2.01653,.14409-2.30459Zm-26.79068-3.16876c1.00832-5.90549,4.89723-9.21828,10.37058-9.21828,6.04952,0,9.50652,3.88891,9.65037,9.21828h-20.02095Zm-124.58616-45.22742h6.9137v-22.61353h28.23102v22.61353h6.9138v-50.70044h-6.9138v21.60529h-28.23102v-21.60529h-6.9137v50.70044h0Zm49.9165-45.94305c0,2.59261,2.01649,4.6091,4.75316,4.6091s4.75316-2.01649,4.75316-4.6091-2.01649-4.75321-4.75316-4.75321-4.75316,2.16054-4.75316,4.75321h0Zm1.44026,45.94729h6.76974v-36.00886h-6.76974v36.00886h0Zm14.83569-2.73637c3.60091,2.59266,8.49822,3.60091,12.24308,3.60091,8.93009,0,14.40352-4.03297,14.40352-10.80262,0-5.18532-2.73657-8.93024-10.08254-10.65866l-4.75316-1.15225c-3.60091-.86424-5.04127-2.44861-5.04127-4.60915,0-2.59266,2.3046-4.60915,6.33757-4.75321,4.17703-.14401,8.21001,1.00829,11.66685,3.31284v-6.48158c-2.88062-1.58442-7.05776-2.59266-11.37874-2.59266-7.20181,0-13.39533,4.17703-13.39533,10.80267,0,4.60915,2.59271,8.49807,10.08244,10.22649l4.32109,1.00829c3.88902,.86419,5.47334,2.44856,5.47334,5.04122,0,3.02473-2.59261,4.75316-6.9137,4.89721-4.17703,.14401-9.36226-1.1523-12.96316-4.32104v6.48153h0Zm29.52723-27.51074h6.62569v16.70812c0,9.50631,5.32928,14.40352,12.96316,14.40352,2.16054,0,4.6091-.57612,7.34587-1.87243v-5.61739c-2.16054,1.15225-4.03307,1.72842-6.33757,1.72842-4.17703,0-7.20181-2.88072-7.20181-8.78618v-16.56407h13.25127v-5.7614h-13.25127v-10.65861h-6.76964v10.65861h-6.62569v5.7614h0Zm29.30313,12.24303c0,10.65861,8.49812,18.86862,19.30074,18.86862s19.15668-8.21001,19.15668-18.86862-8.35406-18.86867-19.15668-18.86867-19.30074,8.21001-19.30074,18.86867h0Zm6.9137,0c0-7.20181,5.32928-12.6751,12.38704-12.6751,6.9137,0,12.24298,5.47329,12.24298,12.6751,0,7.34582-5.32928,12.6751-12.24298,12.6751-7.05776,0-12.38704-5.32928-12.38704-12.6751h0Zm38.1694,18.00408h6.76964v-18.5806c0-8.06595,6.04946-11.95492,10.37065-11.95492,1.72827,0,3.45675,.14401,5.32918,.86419v-6.33752c-1.58432-.72018-3.31279-.86424-4.89721-.86424-5.04117,0-9.2182,3.31284-10.80262,7.77794v-6.9137h-6.76964v36.00886h0Zm25.92632-36.00886l15.84389,35.43268c-2.3045,4.46514-5.32918,6.76969-9.36216,6.76969-1.72847,0-3.45695-.14406-5.32938-.86419v6.33752c1.58432,.72018,3.45685,.86424,5.04117,.86424,7.92199,0,12.8192-5.18527,15.84389-12.24303l15.55587-36.29692h-7.20181l-11.09073,27.94286-11.66685-27.94286h-7.63388Z"/><g><path d="M170.79217,135.80736l20.59171-11.79335-14.62855,1.24906-2.19504-3.80192,8.39599-12.04416-20.50919,11.93628-2.74493-4.4162,29.55193-17.06181,2.79679,4.50602-10.23457,15.56872,18.47592-1.29427,2.50393,4.6751-29.55193,17.06181-2.45207-4.58528Zm-11.07764,32.10266l29.55192,17.06182,2.79679-4.50602-10.35883-15.35348,18.60019,1.07904,2.50393-4.6751-29.55192-17.06182-2.45207,4.58528,20.59171,11.79335-14.62855-1.24906-2.19504,3.80192,8.39599,12.04416-20.50919-11.93628-2.74493,4.4162Zm-30.59561,2.04162v34.12362s5.30071,.16908,5.30071,.16908l8.11709-16.64775,8.36562,16.64775,5.30072-.16908v-34.12362s-5.197,.16908-5.197,.16908l.08252,23.72962-6.23255-13.29322h-4.39008l-6.23255,13.29322,.08252-23.72962-5.197-.16908Zm-17.0659-25.47577l-29.55193,17.06181,2.50393,4.6751,18.47592-1.29427-10.23457,15.56872,2.79679,4.50602,29.55193-17.06181-2.74493-4.4162-20.50919,11.93628,8.39599-12.04416-2.19504-3.80192-14.62855,1.24906,20.59171-11.79335-2.45207-4.58528Zm13.52971-27.51739l-29.55192-17.06182-2.79679,4.50602,10.35883,15.35348-18.60019-1.07904-2.50393,4.6751,29.55192,17.06182,2.45207-4.58528-20.59171-11.79335,14.62855,1.24906,2.19504-3.80192-8.39599-12.04416,20.50919,11.93628,2.74493-4.4162Zm30.59561-2.04162v-34.12362s-5.30071-.16908-5.30071-.16908l-8.11709,16.64775-8.36562-16.64775-5.30072,.16908v34.12362s5.197-.16908,5.197-.16908l-.08252-23.72962,6.23255,13.29322h4.39008l6.23255-13.29322-.08252,23.72962,5.197,.16908Z"/><path d="M201.87059,58.81535l-15.87241,30.20687-5.05373-2.84652,6.58767-12.53703-13.71098-7.20453-6.58767,12.53703-5.21103-2.54717,15.87241-30.20687,5.21103,2.54717-6.5879,12.53746,13.71098,7.20453,6.5879-12.53746,5.05373,2.84652Zm28.92204,32.22726l-11.65942,8.04029-8.79287-12.75075,11.65942-8.04029-3.43059-4.67695-28.09138,19.37171,3.43059,4.67695,11.65902-8.04002,8.79287,12.75075-11.65902,8.04002,3.15221,4.86893,28.09138-19.37171-3.15221-4.86893Zm13.78634,46.84506l-14.06034,1.70149-1.86075-15.37641,14.06034-1.70149-.86438-5.73548-33.876,4.09945,.86438,5.73548,14.05986-1.70143,1.86075,15.37641-14.05986,1.70143,.52867,5.7761,33.876-4.09945-.52867-5.7761Zm-9.56085,47.88646l-13.24074-5.02704,5.49758-14.48009,13.24074,5.02704,1.89982-5.48029-31.9013-12.1118-1.89982,5.48029,13.24029,5.02687-5.49758,14.48009-13.24029-5.02687-2.21596,5.36026,31.9013,12.1118,2.21596-5.36026Zm-30.71813,37.95944l-9.38834-10.60412,11.59668-10.2671,9.38834,10.60412,4.22886-3.96984-22.61959-25.54882-4.22886,3.96984,9.38802,10.60376-11.59668,10.2671-9.38802-10.60376-4.45302,3.71665,22.61959,25.54882,4.45302-3.71665Zm-44.83941,19.33779l-3.38553-13.75233,15.03956-3.70242,3.38553,13.75233,5.58928-1.55009-8.15686-33.13388-5.58928,1.55009,3.38542,13.75185-15.03956,3.70242-3.38542-13.75185-5.67012,1.22173,8.15686,33.13388,5.67012-1.22173Zm-48.6902-3.71319l3.39273-13.75055,15.03762,3.7103-3.39273,13.75055,5.66948,1.2247,8.17421-33.12961-5.66948-1.2247-3.39262,13.75008-15.03762-3.7103,3.39262-13.75008-5.58847-1.55302-8.17421,33.12961,5.58847,1.55302Zm-41.38847-25.91366l9.39389-10.59921,11.5913,10.27317-9.39389,10.59921,4.45107,3.71898,22.63297-25.53698-4.45107-3.71898-9.39357,10.59884-11.5913-10.27317,9.39357-10.59884-4.22678-3.97205-22.63297,25.53698,4.22678,3.97205Zm-24.60669-42.17859l13.24337-5.02011,5.48999,14.48296-13.24337,5.02011,2.21315,5.36142,31.90764-12.09509-2.21315-5.36142-13.24292,5.01994-5.48999-14.48296,13.24292-5.01994-1.89695-5.48128-31.90764,12.09509,1.89695,5.48128Zm-2.18873-48.7825l14.05945,1.70885-1.8688,15.37543-14.05945-1.70885-.5317,5.77583,33.87384,4.11718,.5317-5.77583-14.05897-1.70879,1.8688-15.37543,14.05897,1.70879,.86739-5.73503-33.87384-4.11718-.86739,5.73503Zm20.73055-44.21275l11.65521,8.04639-8.79955,12.74615-11.65521-8.04639-3.15476,4.86728,28.08123,19.38641,3.15476-4.86728-11.65481-8.04612,8.79955-12.74615,11.65481,8.04612,3.43304-4.67516-28.08123-19.38641-3.43304,4.67516Zm38.90149-29.51605l6.58133,12.54091-13.71475,7.19735-6.58133-12.54091-5.05522,2.84387,15.8566,30.21518,5.05522-2.84387-6.58111-12.54048,13.71475-7.19735,6.58111,12.54048,5.21236-2.54444-15.8566-30.21518-5.21236,2.54444Zm48.16202-8.05868v14.16292h-15.48859v-14.16292l-5.79778,.16908v34.12314l5.79778-.16908v-14.16243h15.48859v14.16243l5.79778,.16908V40.86502l-5.79778-.16908Z"/><path d="M201.40439,13.00341l-11.0835,32.27297-5.1154-1.93556-7.45096-27.51682-7.51093,22.37846-5.53834-1.72326,11.0835-32.27297,5.22524,1.61573,7.45096,27.51682,7.51093-22.37846,5.42851,2.04308Zm34.3709,22.39527l-14.37012,18.72723,1.88726-28.44522-4.41752-3.22479-20.96181,26.92566,4.67874,3.42816,14.37012-18.72723-1.88726,28.44522,4.20979,3.49162,20.96181-26.92566-4.47101-3.69499Zm29.70808,36.03687l-19.67214,13.04669,11.02098-26.29125-3.13111-4.48441-28.56867,18.66065,3.31214,4.76157,19.67214-13.04669-11.02098,26.29125,2.84799,4.66933,28.56867-18.66065-3.02903-4.9465Zm16.39754,43.73039l-22.84247,5.9524,18.96045-21.28834-1.5054-5.25809-33.07979,8.37354,1.58664,5.57902,22.84247-5.9524-18.96045,21.28834,1.17758,5.34107,33.07979-8.37354-1.25882-5.662Zm1.31014,46.68522l-23.53755-1.7869,24.84535-13.97858,.28343-5.462-34.00634-2.82093-.3108,5.79192,23.53755,1.7869-24.84535,13.97858-.62043,5.43404,34.00634,2.82093,.6478-5.76396Zm-13.91922,44.58118l-21.68208-9.33257,28.03796-5.1541,2.04155-5.07403-31.24791-13.70972-2.17455,5.37719,21.68208,9.33257-28.03796,5.1541-2.35121,4.93817,31.24791,13.70972,2.48422-5.24133Zm-27.64028,37.64626l-17.4771-15.86696,28.19235,4.2289,3.57844-4.13624-25.10342-23.11291-3.80267,4.37979,17.4771,15.86696-28.19235-4.2289-3.82721,3.90719,25.10342,23.11291,4.05145-4.15074Zm-38.36621,26.63194l-11.37828-20.68197,25.29177,13.15364,4.72757-2.75024-16.2387-30.01155-5.01873,2.90779,11.37828,20.68197-25.29177-13.15364-4.88849,2.45283,16.2387,30.01155,5.17966-2.61037Zm-44.93471,12.73175l-4.0465-23.25586,19.65055,20.65304,5.36441-1.06622-5.61432-33.6581-5.69095,1.12069,4.0465,23.25586-19.65055-20.65304-5.42005,.73267,5.61432,33.6581,5.74659-.78714Zm-46.63404-2.54807l3.72377-23.30972,11.87996,25.91445,5.41996,.73333,5.61843-33.65742-5.74649-.78784-3.72377,23.30972-11.87996-25.91445-5.36428-1.06688-5.61843,33.65742,5.69081,1.12139Zm-43.28003-17.55177l11.09052-20.8377,2.82205,28.36773,4.88819,2.45343,16.24236-30.00957-5.17934-2.611-11.09052,20.8377-2.82205-28.36773-4.72723-2.75082-16.24236,30.00957,5.01838,2.9084Zm-35.23615-30.65355l17.25549-16.10768-6.54167,27.74705,3.82674,3.90766,25.10625-23.10984-4.05094-4.15124-17.25549,16.10768,6.54167-27.74705-3.57793-4.13668-25.10625,23.10984,3.80214,4.38025Zm-23.37402-40.43366l21.55063-9.63221-15.19652,24.11966,2.35061,4.93846,31.24959-13.7059-2.48358-5.24163-21.55063,9.63221,15.19652-24.11966-2.04093-5.07428-31.24959,13.7059,2.1739,5.37746ZM.82733,146.42291l23.51052-2.11298L2.1332,162.18855l.61977,5.43412,34.00668-2.81677-.64709-5.76404-23.51052,2.11298,22.20465-17.87863-.28276-5.46203L.51724,140.63095l.31009,5.79195Zm6.38888-46.26455l22.92278,5.63521L3.33233,115.49382l-1.17823,5.34093,33.07876,8.37759,1.25951-5.66185-22.92278-5.63521,26.80666-9.70025,1.50604-5.2579-33.07876-8.37759-1.58732,5.57882ZM28.28073,58.47489l19.85109,12.77277-28.50387,.47074-2.84856,4.66899,28.56639,18.66414,3.02963-4.94613-19.85109-12.77277,28.50387-.47074,3.13165-4.48403-28.56639-18.66414-3.31273,4.76117ZM61.73831,25.88936l14.62831,18.52625-27.11235-8.80978-4.21021,3.49111,20.95852,26.92822,4.47146-3.69444-14.62831-18.52625,27.11235,8.80978,4.41791-3.22425-20.95852-26.92822-4.67916,3.42758ZM103.96345,5.9328l7.82039,22.2722-22.78291-17.13567-5.11564,1.93493,11.07956,32.27432,5.42876-2.04242-7.82039-22.2722,22.78291,17.13567,5.22544-1.61509L109.502,4.21022l-5.53855,1.72258ZM150.38055,.76772l.16504,23.6047L134.56092,.76772l-5.46673,.16908V35.05993l5.79778-.16908-.16504-23.6047,15.98468,23.6047,5.46673,.16908V.9368l-5.79778-.16908Z"/></g></svg>
