<?xml version="1.0" encoding="UTF-8" standalone="no"?>
<!-- Created with Inkscape (http://www.inkscape.org/) -->

<svg
   xmlns:dc="http://purl.org/dc/elements/1.1/"
   xmlns:cc="http://creativecommons.org/ns#"
   xmlns:rdf="http://www.w3.org/1999/02/22-rdf-syntax-ns#"
   xmlns:svg="http://www.w3.org/2000/svg"
   xmlns="http://www.w3.org/2000/svg"
   xmlns:sodipodi="http://sodipodi.sourceforge.net/DTD/sodipodi-0.dtd"
   xmlns:inkscape="http://www.inkscape.org/namespaces/inkscape"
   version="1.1"
   id="svg2"
   xml:space="preserve"
   width="302.72131"
   height="141.76534"
   viewBox="0 0 302.72131 141.76534"
   sodipodi:docname="nhm_logo.svg"
   inkscape:version="0.92.4 5da689c313, 2019-01-14"><metadata
     id="metadata8"><rdf:RDF><cc:Work
         rdf:about=""><dc:format>image/svg+xml</dc:format><dc:type
           rdf:resource="http://purl.org/dc/dcmitype/StillImage" /><dc:title></dc:title></cc:Work></rdf:RDF></metadata><defs
     id="defs6"><clipPath
       clipPathUnits="userSpaceOnUse"
       id="clipPath20"><path
         d="M 0,0 H 2270.41 V 1063.24 H 0 Z"
         id="path18"
         inkscape:connector-curvature="0" /></clipPath></defs><sodipodi:namedview
     pagecolor="#000000"
     bordercolor="#666666"
     borderopacity="1"
     objecttolerance="10"
     gridtolerance="10"
     guidetolerance="10"
     inkscape:pageopacity="0"
     inkscape:pageshadow="2"
     inkscape:window-width="836"
     inkscape:window-height="1014"
     id="namedview4"
     showgrid="false"
     inkscape:pagecheckerboard="true"
     inkscape:zoom="0.4469697"
     inkscape:cx="115.99185"
     inkscape:cy="158.44956"
     inkscape:window-x="1951"
     inkscape:window-y="1069"
     inkscape:window-maximized="0"
     inkscape:current-layer="g10" /><g
     id="g10"
     inkscape:groupmode="layer"
     inkscape:label="ink_ext_XXXXXX"
     transform="matrix(1.3333333,0,0,-1.3333333,0,141.76533)"><g
       id="g12"
       transform="scale(0.1)"><g
         id="g14"><g
           id="g16"
           clip-path="url(#clipPath20)"><path
             d="M 2198.43,177.594 V 4.73828 h 27.64 V 212.012 h -37.85 L 2128.57,74.9609 2068.9,212.012 h -37.83 V 4.73828 h 27.62 V 177.594 h 0.7 c 2.68,-10.211 8.16,-26.602 17.69,-48.399 l 43.31,-97.1442 h 16.34 l 43.32,97.1442 c 9.89,21.797 15,38.188 17.72,48.399 z m -178.96,536.57 -20.76,-91.359 h 42.91 l -21.45,91.359 z m -719.96,0 -19.79,-91.359 h 42.97 l -22.5,91.359 z m 508.98,-1.031 v -49.43 h 27.27 c 21.79,0 28.26,12.621 28.26,25.563 0,12.957 -7.81,23.867 -28.97,23.867 z m 146.92,-271.32 v -49.469 h 29.27 c 21.86,0 28.3,12.617 28.3,25.582 0,12.961 -7.85,23.887 -28.94,23.887 z m -144.22,-63.458 c 0,-43.945 -9.55,-66.464 -40.24,-66.464 -30.68,0 -40.21,22.519 -40.21,66.464 0,44.004 9.53,66.497 40.21,66.497 30.69,0 40.24,-22.493 40.24,-66.497 z M 1240.85,274.762 v 207.25 h 53.21 v -207.25 z m 438.77,-171.836 h 87.25 v 22.48 h -87.25 v 64.121 h 79.73 c 16.04,0 22.19,6.465 22.19,18.75 v 3.735 H 1651.97 V 4.73828 h 134.31 V 27.2383 h -106.66 z m -217.14,56.25 c 0,-72.2854 113.16,-47.735 113.16,-100.5666 0,-23.1797 -19.43,-35.4688 -49.77,-35.4688 -24.9,0 -45.02,9.5508 -60.37,25.5899 L 1449.51,28.6094 C 1468.92,9.87891 1494.17,0 1526.54,0 c 42.95,0 79.43,19.0586 79.43,60.6602 0,72.5778 -115.55,52.1878 -115.55,100.5508 0,19.762 15.69,32.422 40.88,32.422 22.86,0 42.64,-8.891 56.61,-23.539 l 17.05,17.051 c -18.4,19.082 -42.29,29.613 -73.29,29.613 -44.68,0 -69.19,-23.852 -69.19,-57.582 z m -171.5,30.668 c 0,15.371 -6.47,22.168 -21.82,22.168 h -5.79 V 74.6445 C 1263.37,19.7617 1304.28,0 1341.09,0 c 36.82,0 77.73,19.7617 77.73,74.6445 V 212.012 h -27.59 V 75.9922 c 0,-38.5117 -24.21,-51.793 -50.14,-51.793 -25.9,0 -50.11,13.2813 -50.11,51.793 z m 662.02,0 c 0,15.371 6.49,22.168 21.82,22.168 h 5.78 V 74.6445 C 1980.6,19.7617 1939.72,0 1902.89,0 c -36.8,0 -77.72,19.7617 -77.72,74.6445 V 212.012 h 27.62 V 75.9922 c 0,-38.5117 24.2,-51.793 50.1,-51.793 25.89,0 50.11,13.2813 50.11,51.793 z m 183.38,356.254 v 207.265 h 51.84 V 588.031 h 73.98 v -41.933 h -80.8 z m -702.56,0 v 165.34 h -48.75 v 41.925 h 151.37 v -9.894 c 0,-22.485 -8.87,-32.031 -37.17,-32.031 h -13.63 v -165.34 z m 126.8,-271.336 v 165.312 h -52.15 v 41.938 h 159.55 v -9.907 c 0,-22.468 -8.86,-32.031 -37.17,-32.031 H 1613.8 V 274.762 Z m 613.3,118.965 38.52,88.285 h 57.97 l -70.59,-138.403 v -68.847 h -52.5 v 68.847 l -70.59,138.403 h 57.97 l 38.52,-88.285 z M 1185.64,177.594 V 4.73828 h 27.62 V 212.012 h -37.84 L 1115.77,74.9609 1056.12,212.012 h -37.85 V 4.73828 h 27.59 V 177.594 h 0.7 c 2.72,-10.211 8.17,-26.602 17.71,-48.399 l 43.3,-97.1442 h 16.36 l 43.3,97.1442 c 9.88,21.797 15,38.188 17.74,48.399 z m 224.67,92.383 c -30.02,0 -59.34,8.164 -84.9,28.656 l 21.49,35.777 c 14.31,-12.265 36.12,-24.195 61.02,-24.195 19.42,0 35.1,4.762 35.1,20.094 0,36.464 -108.41,19.101 -108.41,92.738 0,43.297 37.18,63.738 77.75,63.738 30.33,0 55.55,-9.191 74.98,-25.226 l -19.1,-35.797 c -16.02,12.593 -36.14,20.808 -55.88,20.808 -17.05,0 -26.62,-6.496 -26.62,-17.754 0,-36.125 108.43,-19.093 108.43,-93.054 0,-41.235 -35.8,-65.785 -83.86,-65.785 z m 255.66,483.386 h 51.82 V 614.281 c 0,-56.258 -38.87,-72.965 -80.78,-72.965 -41.94,0 -80.8,16.707 -80.8,72.965 v 139.082 h 12.24 c 29.67,0 39.57,-13.976 39.57,-41.597 v -96.129 c 0,-22.5 9.55,-32.723 28.99,-32.723 19.41,0 28.96,10.223 28.96,32.723 z m 394.06,-207.265 -8.49,36.132 h -62.4 l -8.19,-36.132 h -52.17 l 55.9,207.265 h 70.26 l 57.95,-207.265 z m -717.91,0 -9.21,36.132 h -62.04 l -7.85,-36.132 h -52.15 l 53.19,207.265 h 70.21 l 60.69,-207.265 z M 1142.35,274.762 v 86.562 h -70.91 v -86.562 h -53.17 v 207.25 h 53.17 v -80.121 h 70.91 v 80.121 h 53.17 v -207.25 z m -5.46,351.101 c -5.79,15.68 -16.71,39.551 -28.63,59.325 l -23.51,39.199 c -13.65,22.847 -21.83,28.976 -42.28,28.976 h -24.2 V 546.098 h 47.72 v 129.203 h 0.68 c 5.79,-16.031 18.08,-41.25 30,-61.02 l 25.56,-42.613 c 11.6,-19.434 20.46,-25.57 40.58,-25.57 h 22.5 v 207.265 h -47.73 v -127.5 z m 779.65,-79.765 c -8.54,-1.016 -15.69,-1.364 -21.84,-1.364 -28.96,0 -35.8,9.539 -42.62,26.934 l -20.09,52.844 h -23.5 v -78.414 h -51.83 v 207.265 h 81.13 c 52.15,0 78.06,-25.914 78.06,-65.449 0,-26.941 -12.28,-47.051 -35.44,-56.594 z m 161.93,-271.336 c -9.57,-1.407 -17.73,-2.071 -24.9,-2.071 -28.3,0 -38.52,10.918 -46.37,27.27 l -25.92,53.18 h -25.87 v -78.379 h -53.23 v 207.25 h 85.94 c 52.15,0 78.07,-25.891 78.07,-65.16 0,-26.891 -10.57,-45.309 -34.79,-56.192 z m -403.3,103.593 c 0,-67.46 29.32,-108.378 95.78,-108.378 66.49,0 95.78,40.918 95.78,108.378 0,67.512 -29.29,108.43 -95.78,108.43 -66.46,0 -95.78,-40.918 -95.78,-108.43 z M 49.7695,1013.46 H 276.117 L 662.699,446.57 v 569.62 h 9.219 c 95.098,0 158.852,-42.26 179.977,-123.397 5.117,-19.773 7.507,-42.273 7.507,-80.797 V 54.5117 H 636.797 L 246.465,629.281 V 51.7813 h -9.199 c -95.098,0 -158.8597,42.2773 -180.0004,123.4337 -5.0976,19.762 -7.4961,42.262 -7.4961,80.777 V 1013.46 Z M 909.172,4.73828 V 816.438 c 0,37.492 -2.043,61.343 -6.813,82.488 C 878.492,1005.96 794.973,1063.24 658.281,1063.24 H 612.945 V 608.137 L 303.059,1063.24 H 0 V 251.559 C 0,214.059 2.04688,190.176 6.81641,169.043 30.6836,62.0313 114.203,4.73828 250.898,4.73828 h 45.336 V 466.668 L 610.203,4.73828 h 298.969 v 0"
             style="fill:#ffffff;fill-opacity:1;fill-rule:nonzero;stroke:none"
             id="path22"
             inkscape:connector-curvature="0" /></g></g></g></g></svg>
