<?xml version="1.0" encoding="UTF-8" standalone="no"?>
<!-- Generator: Adobe Illustrator 15.1.0, SVG Export Plug-In . SVG Version: 6.00 Build 0)  -->

<svg
   xmlns:dc="http://purl.org/dc/elements/1.1/"
   xmlns:cc="http://creativecommons.org/ns#"
   xmlns:rdf="http://www.w3.org/1999/02/22-rdf-syntax-ns#"
   xmlns:svg="http://www.w3.org/2000/svg"
   xmlns="http://www.w3.org/2000/svg"
   xmlns:sodipodi="http://sodipodi.sourceforge.net/DTD/sodipodi-0.dtd"
   xmlns:inkscape="http://www.inkscape.org/namespaces/inkscape"
   version="1.1"
   id="Layer_1"
   x="0px"
   y="0px"
   width="412"
   height="412"
   viewBox="0 0 412 412"
   enable-background="new 0 0 512 512"
   xml:space="preserve"
   sodipodi:docname="bot.svg"
   inkscape:version="0.92.4 5da689c313, 2019-01-14"><metadata
   id="metadata3767"><rdf:RDF><cc:Work
       rdf:about=""><dc:format>image/svg+xml</dc:format><dc:type
         rdf:resource="http://purl.org/dc/dcmitype/StillImage" /></cc:Work></rdf:RDF></metadata><defs
   id="defs3765" /><sodipodi:namedview
   pagecolor="#ffffff"
   bordercolor="#666666"
   borderopacity="1"
   objecttolerance="10"
   gridtolerance="10"
   guidetolerance="10"
   inkscape:pageopacity="0"
   inkscape:pageshadow="2"
   inkscape:window-width="1884"
   inkscape:window-height="1014"
   id="namedview3763"
   showgrid="false"
   inkscape:zoom="0.58789062"
   inkscape:cx="-20.026578"
   inkscape:cy="216.5"
   inkscape:window-x="15"
   inkscape:window-y="45"
   inkscape:window-maximized="0"
   inkscape:current-layer="Layer_1" />
<path
   d="M 206,0 C 92.229,0 0,92.229 0,206 0,319.771 92.229,412 206,412 319.771,412 412,319.771 412,206 412,92.229 319.771,0 206,0 Z m 125.011,125.449 c -60.339,32.107 -56.019,98.047 -98.289,127.793 -31.82,22.391 -76.717,11.073 -102.67,1.416 0,0 -17.592,20.137 -30.216,46.99 -4.23,9.012 -22.762,-0.901 -19.506,-8.525 41.228,-96.552 181.598,-144.701 181.598,-144.701 0,0 -99.025,-3.805 -165.227,74.618 -1.765,-17.925 -4.707,-66.367 46.548,-96.107 69.488,-40.325 201.856,-8.98 187.762,-1.484 z"
   id="path3760"
   inkscape:connector-curvature="0" />
</svg>
