<?xml version="1.0" encoding="UTF-8" standalone="no"?>
<!-- Generator: Adobe Illustrator 16.0.4, SVG Export Plug-In . SVG Version: 6.00 Build 0)  -->

<svg
   xmlns:dc="http://purl.org/dc/elements/1.1/"
   xmlns:cc="http://creativecommons.org/ns#"
   xmlns:rdf="http://www.w3.org/1999/02/22-rdf-syntax-ns#"
   xmlns:svg="http://www.w3.org/2000/svg"
   xmlns="http://www.w3.org/2000/svg"
   xmlns:sodipodi="http://sodipodi.sourceforge.net/DTD/sodipodi-0.dtd"
   xmlns:inkscape="http://www.inkscape.org/namespaces/inkscape"
   version="1.1"
   id="Layer_1"
   x="0px"
   y="0px"
   width="412"
   height="412"
   viewBox="0 0 412 412"
   enable-background="new 0 0 512 512"
   xml:space="preserve"
   sodipodi:docname="ent.svg"
   inkscape:version="0.92.4 5da689c313, 2019-01-14"><metadata
   id="metadata3821"><rdf:RDF><cc:Work
       rdf:about=""><dc:format>image/svg+xml</dc:format><dc:type
         rdf:resource="http://purl.org/dc/dcmitype/StillImage" /></cc:Work></rdf:RDF></metadata><defs
   id="defs3819" /><sodipodi:namedview
   pagecolor="#ffffff"
   bordercolor="#666666"
   borderopacity="1"
   objecttolerance="10"
   gridtolerance="10"
   guidetolerance="10"
   inkscape:pageopacity="0"
   inkscape:pageshadow="2"
   inkscape:window-width="1884"
   inkscape:window-height="1014"
   id="namedview3817"
   showgrid="false"
   inkscape:zoom="0.4609375"
   inkscape:cx="206"
   inkscape:cy="206"
   inkscape:window-x="15"
   inkscape:window-y="45"
   inkscape:window-maximized="0"
   inkscape:current-layer="Layer_1" />
<g
   id="g3814"
   transform="translate(-50,-50)">
	<path
   d="m 242.791,182.57 c -1.569,-0.92 -3.542,-0.989 -5.816,-0.186 -1.656,0.58 -2.952,1.874 -3.62,3.653 -0.468,1.217 -0.544,2.538 -0.323,3.785 1.214,1.584 2.368,3.162 3.488,4.761 1.003,0.422 2.131,0.578 3.172,0.294 2.062,-0.452 3.564,-2.832 3.223,-5.099 0,-0.035 -0.201,-1.233 -0.937,-1.441 -0.019,-0.011 -0.041,-0.009 -0.078,-0.013 -0.524,-0.115 -1.502,0.249 -3.213,2.43 l -0.396,-0.36 c 1.56,-2.007 2.852,-2.899 3.826,-2.626 1.083,0.278 1.32,1.816 1.317,1.882 0.414,2.572 -1.299,5.251 -3.625,5.776 -0.903,0.247 -1.874,0.121 -2.771,-0.139 7.736,11.293 12.901,23.27 15.283,34.874 0.975,-2.586 2.066,-4.053 3.25,-4.026 -0.006,-0.683 0.077,-1.39 0.133,-2.142 -0.974,-10.573 -7.078,-28.686 -8.138,-33.034 -1.097,-4.438 -2.642,-7.187 -4.775,-8.389 z"
   id="path3808"
   inkscape:connector-curvature="0" />
	<path
   d="m 274.925,182.349 c -2.282,-0.809 -4.233,-0.736 -5.828,0.186 -2.115,1.208 -3.665,3.959 -4.769,8.391 -1.051,4.334 -7.1,22.465 -8.129,33.034 0.098,0.843 0.144,1.623 0.159,2.358 1.129,0.634 2.159,2.593 3.065,5.55 2.165,-12.145 7.448,-24.788 15.584,-36.633 -0.986,0.295 -1.961,0.414 -2.908,0.164 -2.342,-0.527 -4.047,-3.203 -3.639,-5.772 -0.002,-0.057 0.239,-1.605 1.319,-1.88 0.984,-0.282 2.282,0.613 3.814,2.614 l -0.389,0.362 c -1.705,-2.178 -2.681,-2.543 -3.217,-2.425 -0.022,0.002 -0.047,0 -0.049,0.014 -0.743,0.206 -0.935,1.405 -0.927,1.434 -0.376,2.283 1.107,4.652 3.202,5.103 1.062,0.303 2.247,0.133 3.278,-0.324 1.1,-1.559 2.182,-3.094 3.37,-4.605 0.229,-1.299 0.152,-2.663 -0.314,-3.931 -0.675,-1.773 -1.961,-3.057 -3.622,-3.64 z"
   id="path3810"
   inkscape:connector-curvature="0" />
	<path
   d="M 256,50 C 142.229,50 50,142.229 50,256 50,369.771 142.229,462 256,462 369.771,462 462,369.771 462,256 462,142.229 369.771,50 256,50 Z m 115.817,212.126 c -8.31,8.452 -16.445,12.056 -24.6,13.177 13.538,5.683 21.369,17.585 12.754,43.83 -15.033,45.795 -25.602,45.158 -53.661,43.463 -23.312,-1.395 -41.296,-29.407 -45.845,-53.584 -0.728,5.971 -2.189,9.949 -4.521,9.951 -2.25,-0.004 -3.684,-3.728 -4.42,-9.383 -4.737,24.036 -22.61,51.635 -45.73,53.048 -28.068,1.72 -38.644,2.369 -53.69,-43.413 -8.637,-26.262 -0.806,-38.158 12.719,-43.839 -8.15,-1.118 -16.272,-4.709 -24.61,-13.179 -16.038,-16.315 -22.673,-93.836 -16.061,-100.314 23.185,-22.821 67.965,-14.856 100.033,17.762 2.971,2.99 5.651,6.151 8.185,9.355 -0.055,-1.079 0.13,-2.181 0.498,-3.177 0.743,-1.968 2.153,-3.37 3.965,-3.993 2.422,-0.841 4.525,-0.788 6.236,0.19 2.261,1.291 3.887,4.167 5.03,8.732 1.029,4.159 6.382,20.26 7.874,31.137 1.468,-10.872 6.818,-26.983 7.857,-31.142 1.11,-4.563 2.752,-7.438 5.013,-8.741 1.703,-0.969 3.824,-1.03 6.235,-0.184 1.824,0.622 3.232,2.022 3.965,3.983 0.391,1.028 0.571,2.158 0.51,3.273 2.541,-3.235 5.264,-6.403 8.248,-9.453 32.059,-32.634 76.828,-40.622 100.042,-17.819 6.607,6.483 0.021,83.994 -16.026,100.32 z"
   id="path3812"
   inkscape:connector-curvature="0" />
</g>
</svg>
