<svg width="16" height="16" viewBox="0 0 16 16" fill="none"
     xmlns="http://www.w3.org/2000/svg">
    <style>
        path { fill: black; }
        rect { fill: white; }
        @media (prefers-color-scheme: dark) {
            path { fill: white; }
            rect { fill: black; }
        }
    </style>
    <g clip-path="url(#clip0_334_942)">
        <path
            d="M9.58397 7.62223L10.743 6.95656L9.91961 7.02707L9.79606 6.81247L10.2686 6.13264L9.11426 6.80638L8.95977 6.55711L10.6231 5.59406L10.7805 5.8484L10.2045 6.72717L11.2444 6.65412L11.3853 6.918L9.72199 7.88105L9.58397 7.62223ZM8.96046 9.43425L10.6238 10.3973L10.7812 10.143L10.1982 9.27634L11.2451 9.33724L11.386 9.07336L9.72268 8.11031L9.58467 8.36913L10.7437 9.0348L9.92031 8.96429L9.79676 9.17889L10.2693 9.85872L9.11496 9.18498L8.96046 9.43425ZM7.23837 9.54949V11.4756L7.53673 11.4851L7.9936 10.5454L8.46446 11.4851L8.76282 11.4756V9.54949L8.4703 9.55903L8.47495 10.8984L8.12414 10.1481H7.87705L7.52624 10.8984L7.53089 9.55903L7.23837 9.54949ZM6.27781 8.11152L4.61447 9.07457L4.7554 9.33845L5.79533 9.26539L5.21927 10.1442L5.37669 10.3985L7.04003 9.43546L6.88553 9.18619L5.73116 9.85992L6.20373 9.1801L6.08019 8.9655L5.25681 9.036L6.41583 8.37034L6.27781 8.11152ZM7.03934 6.55832L5.37599 5.59527L5.21857 5.84961L5.80163 6.71623L4.7547 6.65532L4.61377 6.91921L6.27711 7.88225L6.41513 7.62344L5.25612 6.95777L6.07949 7.02827L6.20304 6.81368L5.73047 6.13385L6.88484 6.80759L7.03934 6.55832ZM8.76143 6.44308V4.51699L8.46307 4.50745L8.0062 5.44712L7.53533 4.50745L7.23698 4.51699V6.44308L7.5295 6.43354L7.52485 5.09413L7.87565 5.84446H8.12275L8.47355 5.09413L8.46891 6.43354L8.76143 6.44308Z"/>
        <path
            d="M11.3334 3.27646L10.44 4.98147L10.1556 4.8208L10.5264 4.11316L9.75463 3.7065L9.38384 4.41415L9.09054 4.27037L9.98392 2.56536L10.2772 2.70914L9.90642 3.41681L10.6782 3.82346L11.049 3.11579L11.3334 3.27646V3.27646ZM12.9613 5.09551L12.305 5.54934L11.8101 4.82963L12.4664 4.3758L12.2733 4.11182L10.6922 5.20524L10.8853 5.46923L11.5415 5.01542L12.0364 5.73512L11.3802 6.18894L11.5576 6.46376L13.1387 5.37034L12.9613 5.09551ZM13.7373 7.73966L12.9459 7.8357L12.8411 6.96778L13.6325 6.87174L13.5839 6.54801L11.6772 6.7794L11.7258 7.10313L12.5172 7.0071L12.6219 7.87501L11.8305 7.97105L11.8603 8.29708L13.767 8.06569L13.7373 7.73966V7.73966ZM13.1991 10.4426L12.4539 10.1588L12.7633 9.34151L13.5086 9.62526L13.6155 9.31593L11.8199 8.63229L11.713 8.94162L12.4582 9.22536L12.1488 10.0427L11.4036 9.75894L11.2788 10.0615L13.0744 10.7451L13.1991 10.4426ZM11.4701 12.5852L10.9417 11.9866L11.5944 11.4071L12.1229 12.0057L12.3609 11.7816L11.0877 10.3395L10.8497 10.5636L11.3781 11.1621L10.7254 11.7416L10.197 11.1431L9.94635 11.3529L11.2195 12.795L11.4701 12.5852ZM8.94634 13.6767L8.75578 12.9004L9.60229 12.6915L9.79285 13.4677L10.1074 13.3802L9.64833 11.51L9.33374 11.5975L9.52429 12.3737L8.67778 12.5827L8.48723 11.8065L8.16808 11.8754L8.62719 13.7457L8.94634 13.6767ZM6.20579 13.4671L6.39675 12.691L7.24315 12.9004L7.05219 13.6765L7.3713 13.7457L7.83139 11.8757L7.51228 11.8065L7.32132 12.5827L6.47492 12.3732L6.66588 11.5971L6.35133 11.5095L5.89124 13.3794L6.20579 13.4671V13.4671ZM3.87622 12.0044L4.40496 11.4062L5.05738 11.986L4.52864 12.5843L4.77917 12.7942L6.05308 11.3528L5.80255 11.1429L5.27383 11.7411L4.6214 11.1612L5.15012 10.563L4.91222 10.3388L3.63831 11.7802L3.87622 12.0044ZM2.49122 9.62367L3.23663 9.34032L3.54563 10.1578L2.80022 10.4412L2.92479 10.7438L4.72073 10.0611L4.59616 9.75846L3.85078 10.0418L3.54177 9.22432L4.28715 8.94097L4.18038 8.63158L2.38445 9.31429L2.49122 9.62367V9.62367ZM2.36802 6.87017L3.15937 6.96663L3.05418 7.83449L2.26284 7.73803L2.23291 8.06404L4.13952 8.29644L4.16944 7.97042L3.37813 7.87397L3.48331 7.00611L4.27463 7.10256L4.32345 6.77885L2.41685 6.54646L2.36802 6.87017V6.87017ZM3.53485 4.37461L4.19087 4.82878L3.69558 5.54823L3.03957 5.09406L2.862 5.36879L4.44256 6.46304L4.62013 6.18831L3.96413 5.73415L4.45942 5.0147L5.11542 5.46886L5.30865 5.20498L3.72808 4.11072L3.53485 4.37461V4.37461ZM5.72444 2.70859L6.09488 3.41646L5.32293 3.82271L4.9525 3.11484L4.66797 3.27536L5.56046 4.98084L5.845 4.82032L5.47458 4.11248L6.24652 3.70623L6.61694 4.41407L6.91032 4.27045L6.01782 2.56497L5.72444 2.70859V2.70859ZM8.43527 2.25372V3.05314H7.56348V2.25372L7.23715 2.26327V4.18933L7.56348 4.17978V3.38039H8.43527V4.17978L8.7616 4.18933V2.26327L8.43527 2.25372V2.25372Z"/>
        <path
            d="M11.307 0.690637L10.6832 2.51227L10.3953 2.40302L9.97589 0.849843L9.55313 2.11298L9.2414 2.01571L9.86524 0.194085L10.1594 0.285284L10.5787 1.83846L11.0015 0.575316L11.307 0.690636L11.307 0.690637ZM13.2416 1.95473L12.4328 3.01177L12.539 1.4062L12.2904 1.22418L11.1105 2.74398L11.3739 2.93748L12.1827 1.88043L12.0765 3.48601L12.3134 3.68309L13.4933 2.16329L13.2416 1.95473V1.95473ZM14.9138 3.98881L13.8065 4.72522L14.4268 3.24123L14.2506 2.98811L12.6426 4.0414L12.829 4.31016L13.9363 3.57375L13.3159 5.05774L13.4762 5.3213L15.0842 4.26801L14.9138 3.98881V3.98881ZM15.8367 6.45714L14.551 6.79312L15.6182 5.59152L15.5335 5.29473L13.6715 5.76737L13.7609 6.08227L15.0466 5.74629L13.9794 6.9479L14.0456 7.24937L15.9075 6.77673L15.8367 6.45714V6.45714ZM15.9104 9.09227L14.5856 8.99141L15.984 8.20239L16 7.89409L14.0859 7.73487L14.0684 8.06179L15.3933 8.16265L13.9948 8.95166L13.9599 9.25838L15.874 9.41761L15.9104 9.09227V9.09227ZM15.127 11.6086L13.9066 11.0819L15.4847 10.7909L15.5996 10.5045L13.8408 9.7307L13.7184 10.0342L14.9388 10.561L13.3607 10.8519L13.2284 11.1306L14.9872 11.9045L15.127 11.6086H15.127ZM13.5712 13.7335L12.5875 12.8379L14.1744 13.0766L14.3758 12.8432L12.9628 11.5386L12.7488 11.7858L13.7325 12.6814L12.1457 12.4427L11.9302 12.6632L13.3432 13.9678L13.5712 13.7335H13.5712ZM11.4118 15.2368L10.7713 14.0694L12.1949 14.8118L12.461 14.6566L11.547 12.9626L11.2645 13.1267L11.9049 14.2941L10.4814 13.5517L10.2062 13.6901L11.1202 15.3841L11.4118 15.2368H11.4118ZM8.88261 15.9554L8.65485 14.6427L9.76089 15.8085L10.0628 15.7483L9.74682 13.8485L9.4265 13.9118L9.65426 15.2244L8.54822 14.0587L8.24315 14.1L8.55916 15.9998L8.88261 15.9554ZM6.25779 15.8116L6.46738 14.4959L7.13605 15.9586L7.44111 16L7.75735 14.1002L7.43391 14.0558L7.22431 15.3715L6.55564 13.9087L6.25371 13.8485L5.93748 15.7483L6.25779 15.8116V15.8116ZM3.82175 14.8209L4.44598 13.6447L4.60482 15.2459L4.87996 15.3844L5.79417 13.6905L5.50264 13.5431L4.87841 14.7193L4.71957 13.1181L4.45349 12.9629L3.53929 14.6567L3.82175 14.8209V14.8209ZM1.83846 13.0907L2.8097 12.1815L2.4415 13.7476L2.65689 13.9682L4.07 12.6638L3.84199 12.4295L2.87076 13.3387L3.23896 11.7725L3.03758 11.539L1.62446 12.8434L1.83846 13.0907L1.83846 13.0907ZM0.522844 10.8084L1.73583 10.2647L0.880489 11.6261L1.01279 11.9049L2.77169 11.1313L2.6319 10.8354L1.41892 11.3791L2.27426 10.0177L2.15938 9.73126L0.400485 10.5049L0.522844 10.8084V10.8084ZM0.0174536 8.22143L1.34075 8.10216L0.0909551 9.11131L0.125839 9.41804L2.03992 9.25904L2.0035 8.9337L0.680199 9.05296L1.93 8.04381L1.91408 7.73551L0 7.8945L0.0174536 8.22143V8.22143ZM0.377055 5.61005L1.66728 5.92813L0.158449 6.47565L0.0921315 6.77712L1.95399 7.24999L2.02488 6.93041L0.734658 6.61233L2.24348 6.0648L2.32825 5.76803L0.466398 5.29516L0.377055 5.61005V5.61005ZM1.56268 3.25725L2.68001 3.9782L1.07566 4.00477L0.915323 4.26831L2.5232 5.3218L2.69372 5.04262L1.57639 4.32166L3.18075 4.29509L3.35701 4.04199L1.74914 2.98851L1.56268 3.25725H1.56268ZM3.44586 1.41798L4.26922 2.46368L2.74319 1.96642L2.50621 2.16347L3.68587 3.68342L3.93755 3.47489L3.11419 2.42919L4.64022 2.92645L4.88889 2.74446L3.70923 1.22451L3.44586 1.41798V1.41798ZM5.82252 0.29154L6.2627 1.54868L4.98035 0.581469L4.69241 0.690685L5.31603 2.51239L5.62159 2.39711L5.18142 1.13997L6.46376 2.10718L6.75788 2.01602L6.13426 0.19431L5.82252 0.29154V0.29154ZM8.43513 0L8.44442 1.33235L7.54472 0L7.23702 0.00954363V1.9356L7.56335 1.92606L7.55406 0.593707L8.45377 1.92606L8.76146 1.9356V0.00954363L8.43513 0V0Z"/>
    </g>
    <defs>
        <clipPath id="clip0_334_942">
            <rect width="16" height="16"/>
        </clipPath>
    </defs>
</svg>
