<?xml version="1.0" encoding="UTF-8" standalone="no"?>
<!-- Generator: Adobe Illustrator 16.0.4, SVG Export Plug-In . SVG Version: 6.00 Build 0)  -->

<svg
   xmlns:dc="http://purl.org/dc/elements/1.1/"
   xmlns:cc="http://creativecommons.org/ns#"
   xmlns:rdf="http://www.w3.org/1999/02/22-rdf-syntax-ns#"
   xmlns:svg="http://www.w3.org/2000/svg"
   xmlns="http://www.w3.org/2000/svg"
   xmlns:sodipodi="http://sodipodi.sourceforge.net/DTD/sodipodi-0.dtd"
   xmlns:inkscape="http://www.inkscape.org/namespaces/inkscape"
   version="1.1"
   id="Layer_1"
   x="0px"
   y="0px"
   width="412"
   height="412"
   viewBox="0 0 412 412"
   enable-background="new 0 0 512 512"
   xml:space="preserve"
   sodipodi:docname="pal.svg"
   inkscape:version="0.92.4 5da689c313, 2019-01-14"><metadata
   id="metadata3921"><rdf:RDF><cc:Work
       rdf:about=""><dc:format>image/svg+xml</dc:format><dc:type
         rdf:resource="http://purl.org/dc/dcmitype/StillImage" /></cc:Work></rdf:RDF></metadata><defs
   id="defs3919" /><sodipodi:namedview
   pagecolor="#ffffff"
   bordercolor="#666666"
   borderopacity="1"
   objecttolerance="10"
   gridtolerance="10"
   guidetolerance="10"
   inkscape:pageopacity="0"
   inkscape:pageshadow="2"
   inkscape:window-width="1884"
   inkscape:window-height="497"
   id="namedview3917"
   showgrid="false"
   inkscape:zoom="0.4609375"
   inkscape:cx="206"
   inkscape:cy="206"
   inkscape:window-x="15"
   inkscape:window-y="562"
   inkscape:window-maximized="0"
   inkscape:current-layer="Layer_1" />
<path
   d="M 206,0 C 92.229,0 0,92.229 0,206 0,319.771 92.229,412 206,412 319.771,412 412,319.771 412,206 412,92.229 319.771,0 206,0 Z m 77.09,117.51 -30.12,53.895 c -6.347,-4.565 -13.613,-7.692 -21.253,-9.145 -0.128,-0.035 -0.242,-0.09 -0.379,-0.105 -0.025,-0.001 -0.045,0.003 -0.07,0.003 -6.646,-1.206 -13.566,-1.135 -20.397,0.312 L 180.579,97.056 c 36.036,-9.593 73.882,-1.386 102.511,20.454 z m -36.62,85.634 c -3.551,-5.742 -9.302,-9.544 -15.643,-10.773 l 2.892,-22.978 c 13.2,3.473 24.775,12.646 30.763,26.048 0.032,0.051 0.038,0.109 0.07,0.167 z m 20.162,-1.329 c 4.041,16.827 -4.303,34.73 -20.671,42.046 -14.436,6.445 -31.425,-0.051 -37.874,-14.483 -2.426,-5.437 -2.586,-11.493 -0.461,-17.054 2.124,-5.56 6.292,-9.954 11.731,-12.381 8.646,-3.856 18.82,0.025 22.687,8.671 0.08,0.185 0.22,0.31 0.328,0.462 0.131,0.197 0.239,0.411 0.404,0.561 0.149,0.146 0.335,0.227 0.503,0.338 0.179,0.117 0.348,0.258 0.542,0.341 0.197,0.079 0.414,0.086 0.617,0.121 0.204,0.041 0.398,0.104 0.605,0.107 0.226,0.004 0.439,-0.079 0.666,-0.124 0.193,-0.041 0.382,-0.041 0.569,-0.114 z M 162.676,103.381 c 3.816,-1.708 7.68,-3.185 11.574,-4.458 l 30.258,65.342 c -1.435,0.495 -2.874,1.029 -4.285,1.659 -14.532,6.488 -25.538,17.653 -32.069,30.93 L 87.122,179.472 c 14.372,-32.709 40.441,-60.402 75.554,-76.091 z M 86.02,296.906 C 70.622,260.086 71.136,220.359 84.607,185.601 l 80.932,17.354 c -3.218,8.643 -4.579,17.947 -3.959,27.316 -0.021,0.287 -0.062,0.57 -0.009,0.866 0.014,0.067 0.063,0.118 0.081,0.188 0.571,6.897 2.216,13.798 5.094,20.479 z M 202.885,171.884 c 7.938,-3.546 16.335,-4.635 24.407,-3.68 l -3.006,23.841 c -2.558,0.22 -5.127,0.841 -7.589,1.942 -7.034,3.134 -12.415,8.825 -15.166,16.012 -1.295,3.389 -1.911,6.917 -1.896,10.436 l -31.725,6.156 c -0.244,-22.852 12.808,-44.811 34.975,-54.707 z m 11.644,117.373 c -18.627,-7.124 -33.375,-21.085 -41.517,-39.301 -2.445,-5.48 -3.971,-11.136 -4.672,-16.808 l 32.063,-6.229 c 0.413,1.739 0.982,3.449 1.724,5.108 3.832,8.582 10.777,15.161 19.563,18.519 0.529,0.203 1.073,0.35 1.611,0.525 l 9.264,42.552 c -6.096,-0.724 -12.15,-2.118 -18.036,-4.366 z m 57.163,-1.561 c -10.337,4.614 -21.35,6.703 -32.352,6.42 l -9.032,-41.494 c 6.194,0.71 12.475,-0.201 18.314,-2.812 9.768,-4.359 17.098,-11.938 21.353,-20.922 l 48.752,12.378 c -9.544,20.69 -26.036,37.051 -47.035,46.43 z m 49.611,-52.507 -48.975,-12.436 c 2.519,-8.372 2.535,-17.521 -0.449,-26.256 -0.003,-0.007 -0.003,-0.013 -0.003,-0.013 -0.035,-0.115 -0.076,-0.239 -0.128,-0.348 -0.006,-0.031 -0.028,-0.041 -0.041,-0.061 -0.392,-1.108 -0.79,-2.204 -1.271,-3.293 -3.006,-6.716 -7.245,-12.512 -12.317,-17.229 l 30.106,-53.874 c 12.923,11.06 23.664,25.062 31.056,41.598 10.227,22.918 10.955,48.452 2.022,71.912 z"
   id="path3914"
   inkscape:connector-curvature="0" />
</svg>
