<?xml version="1.0" encoding="UTF-8" standalone="no"?>
<!-- Generator: Adobe Illustrator 15.1.0, SVG Export Plug-In . SVG Version: 6.00 Build 0)  -->

<svg
   xmlns:dc="http://purl.org/dc/elements/1.1/"
   xmlns:cc="http://creativecommons.org/ns#"
   xmlns:rdf="http://www.w3.org/1999/02/22-rdf-syntax-ns#"
   xmlns:svg="http://www.w3.org/2000/svg"
   xmlns="http://www.w3.org/2000/svg"
   xmlns:sodipodi="http://sodipodi.sourceforge.net/DTD/sodipodi-0.dtd"
   xmlns:inkscape="http://www.inkscape.org/namespaces/inkscape"
   version="1.1"
   id="Layer_1"
   x="0px"
   y="0px"
   width="412"
   height="412"
   viewBox="0 0 412 412"
   enable-background="new 0 0 512 512"
   xml:space="preserve"
   sodipodi:docname="zoo.svg"
   inkscape:version="0.92.4 5da689c313, 2019-01-14"><metadata
   id="metadata3963"><rdf:RDF><cc:Work
       rdf:about=""><dc:format>image/svg+xml</dc:format><dc:type
         rdf:resource="http://purl.org/dc/dcmitype/StillImage" /></cc:Work></rdf:RDF></metadata><defs
   id="defs3961" /><sodipodi:namedview
   pagecolor="#ffffff"
   bordercolor="#666666"
   borderopacity="1"
   objecttolerance="10"
   gridtolerance="10"
   guidetolerance="10"
   inkscape:pageopacity="0"
   inkscape:pageshadow="2"
   inkscape:window-width="1884"
   inkscape:window-height="1014"
   id="namedview3959"
   showgrid="false"
   inkscape:zoom="0.4609375"
   inkscape:cx="206"
   inkscape:cy="206"
   inkscape:window-x="15"
   inkscape:window-y="45"
   inkscape:window-maximized="0"
   inkscape:current-layer="Layer_1" />
<path
   d="M 206,0 C 92.229,0 0,92.229 0,206 0,319.771 92.229,412 206,412 319.771,412 412,319.771 412,206 412,92.229 319.771,0 206,0 Z m 146.906,157.452 c -8.756,11.993 -45.465,42.686 -61.487,26.657 -10.086,-10.083 -16.138,0.573 -22.33,11.251 -2.08,3.6 -3.45,7.824 -5.142,11.628 0.529,-1.192 -5.135,17.367 0.902,12.686 0.355,-5.025 -2.129,-8.521 4.013,-10.702 9.678,-3.455 3.606,10.604 6.428,12.756 3.067,2.329 7.325,-10.058 13.565,-2.347 5.885,7.272 -7.853,8.307 -9.203,12.886 8.547,2.301 11.237,12.362 0.034,9.938 0,15.24 -11.642,-2.346 -12.717,-2.004 -0.472,0.578 -6.31,15.744 -9.991,5.66 -0.689,-2.488 -0.225,-4.869 1.393,-7.139 3.059,-1.68 3.019,-3.834 -0.119,-6.463 -0.15,-2.176 -13.4,-5.691 -15.249,-7.637 -5.052,-5.305 2.667,-22.577 3.623,-28.827 -7.946,4.746 -16.121,9.904 -26.091,6.425 -8.699,-3.015 -20.356,-6.871 -25.294,3.498 7.061,1.875 21.167,7.434 23.125,15.482 3.173,13.039 -12.721,18.855 -6.358,31.355 11.721,-6.045 17.721,13.801 -1.946,9.426 -4.194,-0.951 7.87,23.729 -7.351,17.586 -5.385,0.254 -2.788,-11.906 -6.448,-12.846 -1.026,3.585 -6.527,12.777 -11.033,7.386 -7.211,-8.616 7.456,-9.894 5.559,-14.046 -3.403,1.053 -9.38,6.498 -12.209,0.734 -5.49,-11.188 10.848,-5.585 11.584,-9.188 0.535,-2.596 -7.531,-4.155 -8.59,-8.451 -3.285,-13.176 14.881,1.169 13.892,1.036 1.566,0.211 5.998,-14.039 -0.018,-13.96 -9.587,0.123 -18.855,-1.484 -26.983,-6.963 -20.607,8.645 -43.529,11.067 -63.68,20.524 -20.815,9.726 -34.166,28.375 -25.163,51.896 3.951,10.331 13.223,20.36 25.102,20.897 3.729,0.168 22.612,-3.09 17.07,6.357 -3.413,5.817 -21.336,5.448 -27.093,3.228 -12.555,-4.799 -22.228,-13.418 -27.766,-25.937 -11.333,-25.619 0.312,-53.804 21.448,-70.214 11.808,-9.168 28.6,-14.351 42.248,-20.726 5.457,-2.549 11.684,-4.83 15.521,-9.715 -4.137,-9.707 -4.366,-20.033 -7.523,-29.79 -20.388,-2.062 3.458,29.645 -16.061,22.833 -7.922,-1.398 -1.189,-13.124 -6.278,-14.646 -5.905,-1.771 -5.514,12.602 -13.047,9.731 -17.938,-6.86 17.478,-22.372 -1.496,-18.2 -5.038,1.12 -8.998,-6.519 -5.32,-10.208 1.812,-1.819 6.114,-2.227 8.237,-0.655 1.135,0.838 8.906,3.381 6.45,0.989 -2.626,-2.567 -12.947,-11.23 -1.815,-12.898 7.092,-1.062 6.477,11.121 10.504,9.24 -6.69,-16.555 10.747,-17.121 8.192,-4.05 8.141,-13.092 16.271,-20.042 28.215,-5.611 3.603,4.346 11.939,31.298 14.394,32.134 3.708,1.262 16.57,-22.673 18.972,-25.492 9.765,-11.47 26.536,-17.215 41.479,-13.757 5.646,1.301 13.589,3.186 14.095,-2.786 -2.508,-3.893 -1.489,-13.221 -3.41,-15.508 -7.571,-9.026 -6.312,3.13 -14.981,-1.801 -15.39,-8.749 11.547,-13.675 11.835,-14.445 1.661,-4.28 -0.608,-4.493 -3.71,-6.678 -5.172,-3.644 -2.165,-16.41 3.795,-13.124 7.629,4.191 4.113,9.83 8.976,14.372 4.903,2.188 3.515,-8.903 4.804,-10.641 2.844,-3.844 12.955,-2.057 10.637,3.227 -1.162,2.654 -5.953,7.264 -5.452,9.823 4.264,0.775 5.808,-9.006 12.377,-5.829 11.679,5.65 -4.603,12.559 -8.972,13.154 1.949,7.688 10.445,0.499 12.606,8.427 3.287,12.136 -10.677,4.75 -13.884,2.876 -2.7,5.304 12.833,30.675 17.102,26.764 6.322,-5.804 5.502,-13.151 14.045,-17.508 6.984,-3.562 16.056,-4.491 23.693,-4.249 15.417,-2.165 54.268,10.287 38.295,32.179 -1.708,2.341 1.205,-1.65 0,0 z"
   id="path3956"
   inkscape:connector-curvature="0" />
</svg>
